<mxfile host="app.diagrams.net" modified="2020-10-13T08:49:38.164Z" agent="5.0 (X11; Linux x86_64) AppleWebKit/537.36 (KHTML, like Gecko) Chrome/84.0.4147.135 Safari/537.36" etag="EwmQAcJNC2-WAiQRstAg" version="13.5.9" type="github">
  <diagram id="C5RBs43oDa-KdzZeNtuy" name="Page-1">
    <mxGraphModel dx="1422" dy="1933" grid="1" gridSize="10" guides="1" tooltips="1" connect="1" arrows="1" fold="1" page="1" pageScale="1" pageWidth="827" pageHeight="1169" math="0" shadow="0">
      <root>
        <mxCell id="WIyWlLk6GJQsqaUBKTNV-0" />
        <mxCell id="WIyWlLk6GJQsqaUBKTNV-1" parent="WIyWlLk6GJQsqaUBKTNV-0" />
        <mxCell id="PvOZdln1H-io0vOfgRiG-19" value="" style="edgeStyle=orthogonalEdgeStyle;rounded=0;orthogonalLoop=1;jettySize=auto;html=1;" edge="1" parent="WIyWlLk6GJQsqaUBKTNV-1" source="WIyWlLk6GJQsqaUBKTNV-3" target="PvOZdln1H-io0vOfgRiG-18">
          <mxGeometry relative="1" as="geometry" />
        </mxCell>
        <mxCell id="WIyWlLk6GJQsqaUBKTNV-3" value="编辑器编辑" style="rounded=1;whiteSpace=wrap;html=1;fontSize=12;glass=0;strokeWidth=1;shadow=0;" parent="WIyWlLk6GJQsqaUBKTNV-1" vertex="1">
          <mxGeometry x="184" y="150" width="120" height="40" as="geometry" />
        </mxCell>
        <mxCell id="PvOZdln1H-io0vOfgRiG-4" value="" style="edgeStyle=orthogonalEdgeStyle;rounded=0;orthogonalLoop=1;jettySize=auto;html=1;" edge="1" parent="WIyWlLk6GJQsqaUBKTNV-1" source="PvOZdln1H-io0vOfgRiG-0" target="PvOZdln1H-io0vOfgRiG-3">
          <mxGeometry relative="1" as="geometry" />
        </mxCell>
        <mxCell id="PvOZdln1H-io0vOfgRiG-0" value="用户浏览" style="ellipse;whiteSpace=wrap;html=1;aspect=fixed;" vertex="1" parent="WIyWlLk6GJQsqaUBKTNV-1">
          <mxGeometry x="204" y="280" width="80" height="80" as="geometry" />
        </mxCell>
        <mxCell id="PvOZdln1H-io0vOfgRiG-6" value="" style="edgeStyle=orthogonalEdgeStyle;rounded=0;orthogonalLoop=1;jettySize=auto;html=1;" edge="1" parent="WIyWlLk6GJQsqaUBKTNV-1" source="PvOZdln1H-io0vOfgRiG-3" target="PvOZdln1H-io0vOfgRiG-5">
          <mxGeometry relative="1" as="geometry" />
        </mxCell>
        <mxCell id="PvOZdln1H-io0vOfgRiG-10" value="" style="edgeStyle=orthogonalEdgeStyle;rounded=0;orthogonalLoop=1;jettySize=auto;html=1;" edge="1" parent="WIyWlLk6GJQsqaUBKTNV-1" source="PvOZdln1H-io0vOfgRiG-3" target="PvOZdln1H-io0vOfgRiG-9">
          <mxGeometry relative="1" as="geometry" />
        </mxCell>
        <mxCell id="PvOZdln1H-io0vOfgRiG-3" value="开放平台作品" style="rhombus;whiteSpace=wrap;html=1;" vertex="1" parent="WIyWlLk6GJQsqaUBKTNV-1">
          <mxGeometry x="364" y="280" width="80" height="80" as="geometry" />
        </mxCell>
        <mxCell id="PvOZdln1H-io0vOfgRiG-5" value="无处理" style="whiteSpace=wrap;html=1;" vertex="1" parent="WIyWlLk6GJQsqaUBKTNV-1">
          <mxGeometry x="504" y="290" width="120" height="60" as="geometry" />
        </mxCell>
        <mxCell id="PvOZdln1H-io0vOfgRiG-12" value="" style="edgeStyle=orthogonalEdgeStyle;rounded=0;orthogonalLoop=1;jettySize=auto;html=1;" edge="1" parent="WIyWlLk6GJQsqaUBKTNV-1" source="PvOZdln1H-io0vOfgRiG-9" target="PvOZdln1H-io0vOfgRiG-11">
          <mxGeometry relative="1" as="geometry" />
        </mxCell>
        <mxCell id="PvOZdln1H-io0vOfgRiG-9" value="获取appi、upurl&lt;br&gt;（开放平台接口）" style="whiteSpace=wrap;html=1;" vertex="1" parent="WIyWlLk6GJQsqaUBKTNV-1">
          <mxGeometry x="344" y="450" width="120" height="60" as="geometry" />
        </mxCell>
        <mxCell id="PvOZdln1H-io0vOfgRiG-11" value="前端设置js对象字段&lt;br&gt;（&lt;span style=&quot;color: rgb(64 , 64 , 64) ; font-family: &amp;#34;helvetica neue&amp;#34; , &amp;#34;helvetica&amp;#34; , &amp;#34;tahoma&amp;#34; , &amp;#34;arial&amp;#34; , &amp;#34;microsoft yahei&amp;#34; , &amp;#34;pingfang sc&amp;#34; , &amp;#34;hiragino sans gb&amp;#34; , &amp;#34;heiti sc&amp;#34; , &amp;#34;wenquanyi micro hei&amp;#34; , sans-serif ; font-size: 15px ; letter-spacing: 0.12px ; background-color: rgb(255 , 255 , 255)&quot;&gt;window.scene&lt;/span&gt;&lt;br&gt;）" style="whiteSpace=wrap;html=1;" vertex="1" parent="WIyWlLk6GJQsqaUBKTNV-1">
          <mxGeometry x="344" y="590" width="120" height="60" as="geometry" />
        </mxCell>
        <mxCell id="PvOZdln1H-io0vOfgRiG-13" value="大数据 js SDK（浏览器中）" style="shape=umlFrame;whiteSpace=wrap;html=1;width=186;height=20;" vertex="1" parent="WIyWlLk6GJQsqaUBKTNV-1">
          <mxGeometry x="204" y="710" width="416" height="180" as="geometry" />
        </mxCell>
        <mxCell id="PvOZdln1H-io0vOfgRiG-17" value="" style="edgeStyle=orthogonalEdgeStyle;rounded=0;orthogonalLoop=1;jettySize=auto;html=1;" edge="1" parent="WIyWlLk6GJQsqaUBKTNV-1" source="PvOZdln1H-io0vOfgRiG-15" target="PvOZdln1H-io0vOfgRiG-16">
          <mxGeometry relative="1" as="geometry" />
        </mxCell>
        <mxCell id="PvOZdln1H-io0vOfgRiG-15" value="获取相关参数" style="rounded=0;whiteSpace=wrap;html=1;" vertex="1" parent="WIyWlLk6GJQsqaUBKTNV-1">
          <mxGeometry x="244" y="780" width="120" height="60" as="geometry" />
        </mxCell>
        <mxCell id="PvOZdln1H-io0vOfgRiG-16" value="调用第三方接口通知" style="whiteSpace=wrap;html=1;rounded=0;" vertex="1" parent="WIyWlLk6GJQsqaUBKTNV-1">
          <mxGeometry x="444" y="780" width="120" height="60" as="geometry" />
        </mxCell>
        <mxCell id="PvOZdln1H-io0vOfgRiG-21" value="" style="edgeStyle=orthogonalEdgeStyle;rounded=0;orthogonalLoop=1;jettySize=auto;html=1;" edge="1" parent="WIyWlLk6GJQsqaUBKTNV-1" source="PvOZdln1H-io0vOfgRiG-18" target="PvOZdln1H-io0vOfgRiG-20">
          <mxGeometry relative="1" as="geometry" />
        </mxCell>
        <mxCell id="PvOZdln1H-io0vOfgRiG-23" value="" style="edgeStyle=orthogonalEdgeStyle;rounded=0;orthogonalLoop=1;jettySize=auto;html=1;" edge="1" parent="WIyWlLk6GJQsqaUBKTNV-1" source="PvOZdln1H-io0vOfgRiG-18" target="PvOZdln1H-io0vOfgRiG-22">
          <mxGeometry relative="1" as="geometry" />
        </mxCell>
        <mxCell id="PvOZdln1H-io0vOfgRiG-18" value="带开放平台参数" style="rhombus;whiteSpace=wrap;html=1;rounded=1;shadow=0;strokeWidth=1;glass=0;" vertex="1" parent="WIyWlLk6GJQsqaUBKTNV-1">
          <mxGeometry x="404" y="130" width="80" height="80" as="geometry" />
        </mxCell>
        <mxCell id="PvOZdln1H-io0vOfgRiG-20" value="开放平台作品&lt;br&gt;（记录标识）" style="whiteSpace=wrap;html=1;rounded=1;shadow=0;strokeWidth=1;glass=0;" vertex="1" parent="WIyWlLk6GJQsqaUBKTNV-1">
          <mxGeometry x="544" y="140" width="120" height="60" as="geometry" />
        </mxCell>
        <mxCell id="PvOZdln1H-io0vOfgRiG-22" value="普通作品" style="whiteSpace=wrap;html=1;rounded=1;shadow=0;strokeWidth=1;glass=0;" vertex="1" parent="WIyWlLk6GJQsqaUBKTNV-1">
          <mxGeometry x="384" y="-20" width="120" height="60" as="geometry" />
        </mxCell>
        <mxCell id="PvOZdln1H-io0vOfgRiG-24" value="&lt;br&gt;&lt;br&gt;注意：分享流量较大，本地缓存数据" style="shape=note;whiteSpace=wrap;html=1;size=14;verticalAlign=top;align=left;spacingTop=-6;" vertex="1" parent="WIyWlLk6GJQsqaUBKTNV-1">
          <mxGeometry x="514" y="445" width="100" height="70" as="geometry" />
        </mxCell>
      </root>
    </mxGraphModel>
  </diagram>
</mxfile>
